# xmcd CD database file generated by Grip 3.2.0
# 
# Track frame offsets:
#       150
#       23097
#       40467
#       53425
#       70547
#       94545
#       112462
#       130247
#       151267
# 
# Disc length: 2302 seconds
# 
# Revision: 3
# Processed by: cddbd v1.5.1PL0 Copyright (c) Steve Scherf et al.
# Submitted via: Grip 3.2.0
# 
DISCID=6e08fc09
DTITLE=The Robert Cray Band - False Accusations
DYEAR=1985
DGENRE=Blues
TTITLE0=Porch Light
TTITLE1=Change Of Heart, Change Of Mind
TTITLE2=She's Gone
TTITLE3=Playin' In The Dirt
TTITLE4=I've Slipped Her Mind
TTITLE5=False Accusations
TTITLE6=The Last Time (I Get Burned Like This)
TTITLE7=Payin' For It Now
TTITLE8=Sonny
EXTD=
EXTT0=
EXTT1=
EXTT2=
EXTT3=
EXTT4=
EXTT5=
EXTT6=
EXTT7=
EXTT8=
PLAYORDER=
